<svg xmlns="http://www.w3.org/2000/svg" viewBox="0 0 200 200">
  <defs>
    <style>
      .blue { stroke: #003366; fill: none; stroke-linecap: round; stroke-linejoin: round; }
      .gold { stroke: #C0A060; fill: none; stroke-linecap: round; stroke-linejoin: round; }
    </style>
  </defs>

  <!-- Outer circle (blue) - partial, open at bottom -->
  <path class="blue" stroke-width="5"
        d="M45 160
           C20 130 15 90 30 55
           C50 15 90 5 130 15
           C170 25 190 65 185 110
           C180 150 155 175 155 175"/>

  <!-- Base loop/figure-8 (gold) -->
  <path class="gold" stroke-width="4.5"
        d="M100 180
           C100 180 100 165 100 155
           C100 145 90 138 75 142
           C60 146 55 158 65 168
           C75 178 95 175 100 155
           C105 175 125 178 135 168
           C145 158 140 146 125 142
           C110 138 100 145 100 155"/>

  <!-- Main trunk (gold) -->
  <path class="gold" stroke-width="4.5"
        d="M100 155 C100 155 100 100 100 70"/>

  <!-- Left inner branch -->
  <path class="gold" stroke-width="4"
        d="M100 115 C92 105 80 100 65 98"/>

  <!-- Right inner branch -->
  <path class="gold" stroke-width="4"
        d="M100 115 C108 105 120 100 135 98"/>

  <!-- Left middle branch -->
  <path class="gold" stroke-width="3.5"
        d="M100 90 C90 80 75 72 55 68"/>

  <!-- Right middle branch -->
  <path class="gold" stroke-width="3.5"
        d="M100 90 C110 80 125 72 145 68"/>

  <!-- Left upper branch -->
  <path class="gold" stroke-width="3"
        d="M100 70 C92 62 80 55 65 50"/>

  <!-- Right upper branch -->
  <path class="gold" stroke-width="3"
        d="M100 70 C108 62 120 55 135 50"/>

  <!-- Left outer curve (blue) connecting to circle -->
  <path class="blue" stroke-width="4"
        d="M55 68 C45 60 38 48 38 35"/>

  <!-- Right outer curve (blue) connecting to circle -->
  <path class="blue" stroke-width="4"
        d="M145 68 C155 60 162 48 162 35"/>

  <!-- Center top leaves (gold) -->
  <path class="gold" stroke-width="3.5"
        d="M100 70
           C95 55 88 42 82 28
           C88 38 95 42 100 38
           C105 42 112 38 118 28
           C112 42 105 55 100 70"/>

  <!-- Left leaf accent -->
  <path class="gold" stroke-width="3"
        d="M65 50 C58 42 55 32 58 22"/>

  <!-- Right leaf accent -->
  <path class="gold" stroke-width="3"
        d="M135 50 C142 42 145 32 142 22"/>
</svg>
