<svg xmlns="http://www.w3.org/2000/svg" viewBox="0 0 52.20 123.22"><path d="M0.13 0.03 L0.00 0.19 L0.00 123.00 L0.13 123.16 L0.22 123.16 L0.25 123.19 L2.64 123.19 L2.92 123.09 L3.08 122.94 L3.17 122.75 L3.17 122.24 L3.08 122.05 L2.92 121.89 L2.64 121.79 L1.65 121.79 L1.59 121.73 L1.59 120.05 L1.65 119.98 L8.03 119.98 L8.10 120.05 L8.10 121.73 L8.03 121.79 L7.05 121.79 L6.76 121.89 L6.57 122.08 L6.51 122.21 L6.51 122.78 L6.57 122.90 L6.76 123.09 L7.02 123.19 L8.70 123.19 L8.73 123.16 L9.05 123.09 L9.21 123.00 L9.53 122.68 L9.68 122.27 L9.68 119.32 L9.53 118.90 L9.18 118.55 L8.70 118.40 L2.29 118.40 L2.00 118.27 L1.87 118.17 L1.65 117.86 L1.59 117.67 L1.59 101.92 L1.65 101.73 L1.81 101.47 L2.00 101.31 L2.29 101.19 L49.88 101.19 L50.16 101.31 L50.42 101.54 L50.51 101.70 L50.58 101.89 L50.58 102.04 L50.61 102.08 L50.61 117.51 L50.58 117.54 L50.58 117.70 L50.51 117.89 L50.42 118.05 L50.26 118.21 L49.88 118.40 L43.47 118.40 L43.05 118.52 L42.67 118.87 L42.55 119.13 L42.51 119.38 L42.48 119.41 L42.48 122.17 L42.51 122.21 L42.55 122.46 L42.70 122.75 L42.96 123.00 L43.21 123.13 L43.47 123.16 L43.50 123.19 L45.15 123.19 L45.18 123.16 L45.37 123.13 L45.66 122.81 L45.66 122.71 L45.69 122.68 L45.69 122.30 L45.66 122.27 L45.66 122.17 L45.37 121.86 L45.18 121.82 L45.15 121.79 L44.13 121.79 L44.07 121.73 L44.07 120.05 L44.13 119.98 L50.55 119.98 L50.61 120.05 L50.61 121.73 L50.55 121.79 L49.53 121.79 L49.31 121.86 L49.05 122.11 L48.99 122.27 L48.99 122.71 L49.02 122.81 L49.21 123.06 L49.31 123.13 L49.53 123.19 L51.91 123.19 L51.94 123.16 L52.04 123.16 L52.17 123.00 L52.17 0.19 L52.04 0.03 L51.94 0.03 L51.91 0.00 L49.75 0.00 L49.72 0.03 L49.63 0.03 L48.61 1.08 L48.61 2.00 L48.74 2.16 L48.83 2.16 L48.86 2.19 L50.55 2.19 L50.61 2.25 L50.61 4.95 L50.55 5.02 L32.83 5.02 L32.77 4.95 L32.77 2.25 L32.83 2.19 L34.51 2.19 L34.54 2.16 L34.64 2.16 L34.77 2.00 L34.77 1.08 L34.73 1.02 L33.75 0.03 L33.66 0.03 L33.62 0.00 L31.46 0.00 L31.43 0.03 L31.34 0.03 L31.21 0.19 L31.21 4.57 L31.15 4.79 L30.99 4.95 L30.80 5.02 L21.37 5.02 L21.34 4.98 L21.24 4.98 L21.05 4.83 L20.99 4.70 L20.99 0.19 L20.86 0.03 L20.76 0.03 L20.73 0.00 L18.54 0.00 L18.51 0.03 L18.41 0.03 L17.40 1.08 L17.40 2.00 L17.53 2.16 L17.62 2.16 L17.65 2.19 L19.34 2.19 L19.40 2.25 L19.40 4.95 L19.34 5.02 L1.65 5.02 L1.59 4.95 L1.59 2.25 L1.65 2.19 L3.30 2.19 L3.33 2.16 L3.43 2.16 L3.59 1.97 L3.59 1.11 L2.54 0.03 L2.44 0.03 L2.41 0.00 L0.25 0.00 L0.22 0.03ZM2.03 6.70 L2.22 6.60 L2.35 6.60 L2.38 6.57 L10.54 6.57 L10.57 6.60 L10.73 6.60 L11.05 6.76 L11.24 6.92 L11.40 7.14 L11.53 7.52 L11.53 7.81 L11.40 8.19 L11.33 8.60 L11.30 8.64 L11.27 9.24 L11.24 9.27 L11.24 9.65 L11.27 9.68 L11.30 10.29 L11.33 10.32 L11.33 10.45 L11.53 11.11 L11.68 11.43 L11.68 11.49 L11.94 11.97 L12.35 12.54 L12.76 12.92 L13.24 13.08 L13.59 13.08 L13.62 13.05 L13.94 12.99 L14.13 12.89 L14.54 12.45 L14.64 12.26 L14.67 12.03 L14.70 12.00 L14.70 11.05 L14.57 10.89 L14.48 10.89 L14.45 10.86 L13.62 10.86 L13.53 10.76 L13.43 10.57 L13.27 10.06 L13.24 9.68 L13.21 9.65 L13.24 9.02 L13.27 8.99 L13.27 8.86 L13.30 8.83 L13.37 8.51 L13.56 8.10 L13.62 8.03 L14.45 8.03 L14.48 8.00 L14.57 8.00 L14.70 7.84 L14.70 6.99 L14.80 6.89 L15.05 6.76 L15.62 6.60 L15.88 6.60 L15.91 6.57 L16.54 6.60 L16.57 6.64 L16.86 6.67 L17.40 6.89 L17.49 6.99 L17.49 7.84 L17.62 8.00 L17.72 8.00 L17.75 8.03 L18.54 8.03 L18.64 8.13 L18.73 8.32 L18.89 8.79 L18.92 9.11 L18.95 9.14 L18.95 9.75 L18.92 9.78 L18.92 9.97 L18.89 10.00 L18.86 10.22 L18.70 10.67 L18.57 10.86 L17.75 10.86 L17.72 10.89 L17.62 10.89 L17.49 11.05 L17.49 12.10 L17.65 12.48 L17.72 12.57 L18.10 12.92 L18.57 13.08 L18.95 13.08 L19.27 12.99 L19.46 12.89 L20.00 12.32 L20.29 11.87 L20.57 11.30 L20.83 10.51 L20.86 10.19 L20.89 10.16 L20.89 9.91 L20.92 9.87 L20.92 9.05 L20.89 9.02 L20.89 8.76 L20.86 8.73 L20.83 8.41 L20.80 8.38 L20.76 8.16 L20.67 7.91 L20.67 7.75 L20.64 7.72 L20.67 7.43 L20.80 7.11 L21.08 6.79 L21.37 6.64 L21.59 6.60 L21.62 6.57 L49.78 6.57 L49.82 6.60 L49.94 6.60 L50.20 6.73 L50.32 6.83 L50.45 6.99 L50.55 7.18 L50.58 7.46 L50.61 7.49 L50.61 98.71 L50.58 98.74 L50.58 98.90 L50.51 99.09 L50.39 99.28 L50.16 99.47 L49.88 99.60 L41.53 99.60 L41.21 99.47 L40.99 99.31 L40.83 99.12 L40.70 98.87 L40.67 98.62 L40.64 98.58 L40.67 98.27 L40.77 98.01 L40.83 97.63 L40.86 97.60 L40.86 97.44 L40.89 97.41 L40.93 96.36 L40.89 96.33 L40.89 96.04 L40.86 96.01 L40.83 95.69 L40.61 94.96 L40.23 94.20 L39.81 93.63 L39.43 93.28 L39.24 93.19 L39.02 93.12 L38.89 93.12 L38.86 93.09 L38.64 93.09 L38.61 93.12 L38.35 93.15 L38.07 93.28 L37.94 93.38 L37.66 93.69 L37.50 94.08 L37.50 94.23 L37.47 94.27 L37.47 95.12 L37.50 95.19 L37.62 95.31 L37.72 95.31 L37.75 95.35 L38.58 95.35 L38.64 95.41 L38.80 95.76 L38.83 95.95 L38.89 96.08 L38.89 96.20 L38.93 96.23 L38.93 96.42 L38.96 96.46 L38.96 97.03 L38.93 97.06 L38.89 97.38 L38.77 97.79 L38.64 98.04 L38.54 98.14 L37.72 98.14 L37.69 98.17 L37.59 98.17 L37.47 98.33 L37.47 99.22 L37.15 99.41 L36.64 99.57 L36.45 99.57 L36.42 99.60 L35.75 99.60 L35.72 99.57 L35.56 99.57 L35.53 99.54 L35.27 99.50 L34.77 99.28 L34.70 99.22 L34.70 98.33 L34.58 98.17 L34.48 98.17 L34.45 98.14 L33.62 98.14 L33.46 97.92 L33.31 97.47 L33.27 97.22 L33.24 97.19 L33.24 96.96 L33.21 96.93 L33.24 96.27 L33.27 96.23 L33.31 95.98 L33.46 95.54 L33.59 95.35 L34.42 95.35 L34.45 95.31 L34.54 95.31 L34.70 95.12 L34.70 94.20 L34.67 94.17 L34.64 93.95 L34.45 93.60 L34.10 93.28 L33.91 93.19 L33.69 93.12 L33.56 93.12 L33.53 93.09 L33.31 93.09 L33.27 93.12 L33.02 93.15 L32.73 93.28 L32.61 93.38 L32.16 93.88 L31.91 94.27 L31.59 94.90 L31.34 95.73 L31.31 96.08 L31.27 96.11 L31.27 96.42 L31.24 96.46 L31.24 97.00 L31.27 97.03 L31.31 97.57 L31.34 97.60 L31.34 97.73 L31.53 98.39 L31.50 98.77 L31.37 99.09 L31.15 99.35 L31.02 99.44 L30.64 99.60 L2.29 99.60 L1.87 99.38 L1.71 99.19 L1.59 98.87 L1.59 7.33 L1.65 7.11 L1.75 6.95Z" fill-rule="evenodd"/></svg>