<?xml version="1.0" encoding="UTF-8"?>
<svg id="Capa_1" data-name="Capa 1" xmlns="http://www.w3.org/2000/svg" version="1.1" viewBox="0 0 680.31 198.43">
  <defs>
    <style>
      .cls-1 {
        fill: #5f555d;
      }

      .cls-1, .cls-2 {
        stroke-width: 0px;
      }

      .cls-2 {
        fill: #d50032;
      }
    </style>
  </defs>
  <g>
    <path class="cls-1" d="M243.77,58.28c3.36.8,6.08,1.6,8.07,2.37,1.9.74,3.26,1.63,4.06,2.66.78,1,1.17,2.4,1.17,4.15,0,2.83-.94,4.72-2.88,5.78-2.06,1.13-5.26,1.7-9.48,1.7-2.49,0-4.95-.21-7.31-.64-2.36-.42-4.61-1.04-6.7-1.83l-1.04-.4v7.21l.48.19c3.84,1.56,8.92,2.35,15.1,2.35s11.31-1.25,14.59-3.7c3.35-2.51,5.04-6.1,5.04-10.66,0-2.45-.49-4.67-1.46-6.61-.98-1.96-2.67-3.67-5.03-5.09-2.3-1.38-5.53-2.58-9.61-3.56-3.31-.8-5.92-1.57-7.77-2.3-1.74-.68-2.98-1.5-3.68-2.42-.68-.9-1.03-2.12-1.03-3.62,0-2.73.97-4.58,2.96-5.66,2.11-1.15,5.23-1.74,9.25-1.74,2.23,0,4.43.18,6.52.52,2.08.35,4.04.85,5.82,1.49l1.03.37v-7.14l-.52-.18c-1.37-.48-3.26-.91-5.78-1.33-2.48-.41-5.19-.62-8.07-.62-6.31,0-11.1,1.28-14.23,3.8-3.18,2.56-4.79,6.09-4.79,10.49,0,3.77,1.18,6.82,3.52,9.07,2.28,2.2,6.22,4,11.73,5.35Z"/>
    <path class="cls-1" d="M284.5,81.06h4.54l10.64-35.45,9.25,32.39c.52,1.81,2.19,3.07,4.07,3.07h4.64l11.73-50.72h-7.69l-8.86,38.16-9.7-34.27c-.65-2.29-2.77-3.89-5.15-3.89h-2.42v6.08l-9.74,32.17-7.98-34.96c-.44-1.94-2.14-3.29-4.13-3.29h-4.39l11.05,47.45c.45,1.93,2.14,3.27,4.12,3.27Z"/>
    <path class="cls-1" d="M341.22,30.34h-3.57v50.72h7.8v-46.49c0-2.33-1.9-4.23-4.23-4.23Z"/>
    <path class="cls-1" d="M385.24,78.12c3.35-2.51,5.04-6.1,5.04-10.66,0-2.45-.49-4.67-1.46-6.61-.98-1.96-2.67-3.67-5.03-5.09-2.3-1.38-5.53-2.58-9.61-3.56-3.31-.8-5.92-1.57-7.77-2.3-1.74-.68-2.98-1.5-3.68-2.42-.68-.9-1.03-2.12-1.03-3.62,0-2.73.97-4.58,2.96-5.66,2.11-1.15,5.23-1.74,9.25-1.74,2.23,0,4.43.18,6.52.52,2.08.35,4.04.85,5.82,1.49l1.03.37v-7.14l-.52-.18c-1.37-.48-3.26-.91-5.78-1.33-2.48-.41-5.19-.62-8.07-.62-6.31,0-11.1,1.28-14.23,3.8-3.18,2.56-4.79,6.09-4.79,10.49,0,3.77,1.18,6.82,3.52,9.07,2.28,2.2,6.22,4,11.73,5.35,3.36.8,6.08,1.6,8.07,2.37,1.9.74,3.26,1.63,4.06,2.66.78,1,1.17,2.4,1.17,4.15,0,2.83-.94,4.72-2.88,5.78-2.06,1.13-5.26,1.7-9.48,1.7-2.49,0-4.95-.21-7.31-.64-2.36-.42-4.61-1.04-6.7-1.83l-1.04-.4v7.21l.48.19c3.84,1.56,8.92,2.35,15.1,2.35s11.31-1.25,14.59-3.7Z"/>
    <path class="cls-1" d="M410.19,58.28c3.36.8,6.08,1.6,8.07,2.37,1.9.74,3.26,1.63,4.06,2.66.78,1,1.17,2.4,1.17,4.15,0,2.83-.94,4.72-2.88,5.78-2.06,1.13-5.26,1.7-9.48,1.7-2.49,0-4.95-.21-7.31-.64-2.36-.42-4.61-1.04-6.7-1.83l-1.04-.4v7.21l.48.19c3.84,1.56,8.92,2.35,15.1,2.35s11.31-1.25,14.59-3.7c3.35-2.51,5.04-6.1,5.04-10.66,0-2.45-.49-4.67-1.46-6.61-.98-1.96-2.67-3.67-5.03-5.09-2.3-1.38-5.53-2.58-9.61-3.56-3.31-.8-5.92-1.57-7.77-2.3-1.74-.68-2.98-1.5-3.68-2.42-.68-.9-1.03-2.12-1.03-3.62,0-2.73.97-4.58,2.96-5.66,2.12-1.15,5.23-1.74,9.25-1.74,2.23,0,4.43.18,6.52.52,2.08.35,4.04.85,5.82,1.49l1.03.37v-7.14l-.52-.18c-1.38-.48-3.26-.91-5.78-1.33-2.48-.41-5.19-.62-8.07-.62-6.31,0-11.1,1.28-14.23,3.8-3.18,2.56-4.79,6.09-4.79,10.49,0,3.77,1.18,6.82,3.52,9.07,2.28,2.2,6.22,4,11.73,5.35Z"/>
  </g>
  <g>
    <path class="cls-1" d="M285.56,98.76l-22.92,47-22.92-47c-.85-1.74-2.61-2.84-4.55-2.84h-6.65v66.75c0,2.79,2.26,5.06,5.06,5.06h3.97v-57.54l22.08,45.05h6.13l21.97-45.05v52.48c0,2.79,2.26,5.06,5.06,5.06h3.97v-71.81h-6.65c-1.93,0-3.7,1.1-4.55,2.84Z"/>
    <path class="cls-1" d="M348.58,95.92h-43.45v71.81h48.51v-2.08c0-2.79-2.26-5.06-5.06-5.06h-34.31v-25.2h27.26v-7.14h-27.26v-25.09h39.36v-2.19c0-2.79-2.26-5.06-5.06-5.06Z"/>
    <path class="cls-1" d="M390.62,95.92h-28.1v71.81h28.1c10.63,0,18.3-2.84,23.03-8.53,4.72-5.69,7.08-14.66,7.08-26.93,0-12.94-2.42-22.23-7.25-27.88-4.83-5.65-12.45-8.47-22.86-8.47ZM409.08,149.89c-1.67,4.09-4.18,6.9-7.53,8.42-3.35,1.52-7.55,2.29-12.6,2.29h-17.28v-57.43h17.28c5.43,0,9.79.84,13.1,2.51,3.31,1.67,5.72,4.63,7.25,8.86,1.52,4.24,2.29,10.15,2.29,17.73s-.84,13.53-2.51,17.62Z"/>
    <path class="cls-1" d="M433.7,95.92h-4.09v71.81h9.14v-66.75c0-2.79-2.26-5.06-5.06-5.06Z"/>
    <path class="cls-1" d="M481.99,94.8c-8.03,0-14.57,1.58-19.63,4.74-5.06,3.16-8.77,7.64-11.15,13.44-2.38,5.8-3.57,12.6-3.57,20.41,0,7.14,1.26,13.36,3.79,18.68,2.53,5.32,6.34,9.44,11.43,12.38,5.09,2.94,11.5,4.41,19.24,4.41,4.16,0,7.93-.26,11.32-.78,3.38-.52,6.52-1.23,9.42-2.12v-8.14c-2.97,1.12-6.19,1.93-9.65,2.45-3.46.52-6.86.78-10.2.78-9.07,0-15.71-2.4-19.9-7.19-4.2-4.79-6.3-11.61-6.3-20.46,0-6.39.82-11.89,2.45-16.5,1.63-4.61,4.35-8.14,8.14-10.59,3.79-2.45,8.92-3.68,15.39-3.68,3.72,0,7.25.32,10.59.95,3.35.63,6.5,1.51,9.48,2.62v-8.03c-2.97-1.04-6.15-1.86-9.53-2.45-3.38-.59-7.16-.89-11.32-.89Z"/>
    <path class="cls-1" d="M541.68,95.92h-7.21l-27.32,71.81h9.48l7.58-19.74h31.22l7.58,19.74h9.37l-25.97-68.55c-.74-1.97-2.63-3.27-4.73-3.27ZM525.77,140.75l13.94-36.91,14.05,36.91h-27.99Z"/>
    <path class="cls-1" d="M618.56,160.6h-33.19v-59.62c0-2.79-2.26-5.06-5.06-5.06h-4.09v71.81h47.39v-2.08c0-2.79-2.26-5.06-5.06-5.06Z"/>
  </g>
  <g>
    <path class="cls-2" d="M108.94,81.82h-45.42c-3.77,0-6.83-3.06-6.83-6.83V29.58h45.42c3.77,0,6.83,3.06,6.83,6.83v45.42Z"/>
    <path class="cls-2" d="M194.85,75V29.58h-45.42c-3.77,0-6.83,3.06-6.83,6.83v45.42h45.42c3.77,0,6.83-3.06,6.83-6.83Z"/>
    <path class="cls-2" d="M108.94,160.91v-45.42h-45.42c-3.77,0-6.83,3.06-6.83,6.83v45.42h45.42c3.77,0,6.83-3.06,6.83-6.83Z"/>
    <path class="cls-2" d="M194.85,122.32c0-3.77-3.06-6.83-6.83-6.83h-45.42v45.42c0,3.77,3.06,6.83,6.83,6.83h45.42v-45.42Z"/>
  </g>
</svg>